# xmcd
#
# Track frame offsets:
# 150
# 16425
# 30525
# 46350
# 64500
# 81975
# 100500
# 118500
# 137175
# 154275
# 177450
#
# Disc length: 2695 seconds
#
#
# Revision: 0
# Processed by: cddbd v1.5.2PL0 Copyright (c) Steve Scherf et al.
# Submitted via: KELLER's_Musik_Katalog 2004 
#
DISCID=8c0a850b
DTITLE=Amy MacDonald - This Is The Life
DYEAR=2007
DGENRE=singer - songwriter - 
TTITLE0=Mr. Rock and Roll
TTITLE1=This Is The Life
TTITLE2=Poison Prince
TTITLE3=Youth Of Today
TTITLE4=Run
TTITLE5=Let's Start A Band
TTITLE6=Barrowland Ballroom
TTITLE7=L. A.
TTITLE8=A Wish For Something More
TTITLE9=Footballer's Wife
TTITLE10=The Road Home
EXTD=\n\n Für freedb bereitgestelt von:\n    KELLER'S Musik Katalog 2004
EXTT0=
EXTT1=
EXTT2=
EXTT3=
EXTT4=
EXTT5=
EXTT6=
EXTT7=
EXTT8=
EXTT9=
EXTT10=
PLAYORDER=
